<?xml version="1.0" standalone="no"?>
<!DOCTYPE svg PUBLIC "-//W3C//DTD SVG 20010904//EN"
 "http://www.w3.org/TR/2001/REC-SVG-20010904/DTD/svg10.dtd">
<svg version="1.0" xmlns="http://www.w3.org/2000/svg"
 width="432.000000pt" height="510.000000pt" viewBox="0 0 432.000000 510.000000"
 preserveAspectRatio="xMidYMid meet">

<g transform="translate(0.000000,510.000000) scale(0.100000,-0.100000)"
fill="#32CD32" stroke="none">
<path d="M695 5010 c-105 -21 -244 -95 -297 -159 -50 -59 -58 -142 -21 -216 8
-16 331 -599 717 -1295 l701 -1265 5 -905 c5 -862 6 -907 24 -943 69 -140 360
-191 547 -96 64 32 103 67 123 109 8 18 12 287 16 940 l5 915 710 1275 709
1275 4 70 c3 65 1 73 -29 119 -52 78 -183 152 -313 177 -123 23 -208 0 -273
-75 -21 -24 -260 -475 -587 -1106 -304 -586 -559 -1078 -567 -1093 -15 -27
-19 -19 -584 1063 -368 707 -582 1106 -607 1134 -67 78 -156 101 -283 76z"/>
</g>
</svg>
